<svg id="visual" 
    viewBox="0 0 900 600" 
    width="900" 
    height="600" 
    xmlns="http://www.w3.org/2000/svg" 
    xmlns:xlink="http://www.w3.org/1999/xlink" 
    version="1.1">
    <g stroke-width="1" stroke-linejoin="bevel">
    <path d="M389 307L409 235L326 225Z" fill="#001f3c" stroke="#001f3c"></path>

    <path d="M326 225L266 310L389 307Z" fill="#001f3c" stroke="#001f3c"></path>
    
    <path d="M409 235L378 121L326 225Z" fill="#00182b" stroke="#00182b"></path>

    <path d="M326 225L195 262L266 310Z" fill="#0941b1" stroke="#0941b1"></path>

    <path d="M297 408L380 407L389 307Z" fill="#0941b1" stroke="#0941b1"></path>

    <path d="M537 337L533 210L409 235Z" fill="#00306e" stroke="#00306e"></path>

    <path d="M266 310L297 408L389 307Z" fill="#00254d" stroke="#00254d"></path>
    
    <path d="M378 121L302 107L326 225Z" fill="#003990" stroke="#003990"></path><path d="M170 190L195 262L326 225Z" fill="#003da1" stroke="#003da1"></path><path d="M266 310L171 430L297 408Z" fill="#00357f" stroke="#00357f"></path><path d="M537 337L409 235L389 307Z" fill="#00357f" stroke="#00357f"></path><path d="M409 235L506 101L378 121Z" fill="#00254d" stroke="#00254d"></path><path d="M518 383L537 337L389 307Z" fill="#00101c" stroke="#00101c"></path><path d="M380 407L518 383L389 307Z" fill="#00182b" stroke="#00182b"></path><path d="M302 107L170 190L326 225Z" fill="#003990" stroke="#003990"></path><path d="M297 408L392 467L380 407Z" fill="#00101c" stroke="#00101c"></path><path d="M380 407L475 485L518 383Z" fill="#0941b1" stroke="#0941b1"></path><path d="M533 210L506 101L409 235Z" fill="#00357f" stroke="#00357f"></path><path d="M378 121L324 0L302 107Z" fill="#00306e" stroke="#00306e"></path><path d="M617 286L562 168L533 210Z" fill="#003990" stroke="#003990"></path><path d="M533 210L562 168L506 101Z" fill="#00101c" stroke="#00101c"></path><path d="M171 430L282 469L297 408Z" fill="#00182b" stroke="#00182b"></path><path d="M297 408L282 469L392 467Z" fill="#1b44c2" stroke="#1b44c2"></path><path d="M204 0L186 91L302 107Z" fill="#00254d" stroke="#00254d"></path><path d="M302 107L186 91L170 190Z" fill="#00182b" stroke="#00182b"></path><path d="M561 526L475 485L491 600Z" fill="#00254d" stroke="#00254d"></path><path d="M392 467L475 485L380 407Z" fill="#00254d" stroke="#00254d"></path><path d="M618 439L617 286L537 337Z" fill="#00357f" stroke="#00357f"></path><path d="M537 337L617 286L533 210Z" fill="#00182b" stroke="#00182b"></path><path d="M618 439L537 337L518 383Z" fill="#001f3c" stroke="#001f3c"></path><path d="M195 262L171 430L266 310Z" fill="#003990" stroke="#003990"></path><path d="M106 319L171 430L195 262Z" fill="#003990" stroke="#003990"></path><path d="M506 101L388 0L378 121Z" fill="#0941b1" stroke="#0941b1"></path><path d="M70 197L195 262L170 190Z" fill="#00254d" stroke="#00254d"></path><path d="M70 197L106 319L195 262Z" fill="#1b44c2" stroke="#1b44c2"></path><path d="M388 0L324 0L378 121Z" fill="#1b44c2" stroke="#1b44c2"></path><path d="M562 168L565 75L506 101Z" fill="#00101c" stroke="#00101c"></path><path d="M506 101L487 0L388 0Z" fill="#00101c" stroke="#00101c"></path><path d="M663 118L565 75L562 168Z" fill="#0941b1" stroke="#0941b1"></path><path d="M79 479L184 486L171 430Z" fill="#003da1" stroke="#003da1"></path><path d="M171 430L184 486L282 469Z" fill="#00182b" stroke="#00182b"></path><path d="M401 600L475 485L392 467Z" fill="#00306e" stroke="#00306e"></path><path d="M565 75L487 0L506 101Z" fill="#001f3c" stroke="#001f3c"></path><path d="M110 65L70 197L170 190Z" fill="#001f3c" stroke="#001f3c"></path><path d="M324 0L204 0L302 107Z" fill="#003da1" stroke="#003da1"></path><path d="M186 91L110 65L170 190Z" fill="#0941b1" stroke="#0941b1"></path><path d="M561 526L618 439L518 383Z" fill="#00182b" stroke="#00182b"></path><path d="M204 0L110 65L186 91Z" fill="#003990" stroke="#003990"></path><path d="M0 313L75 403L106 319Z" fill="#00101c" stroke="#00101c"></path><path d="M106 319L75 403L171 430Z" fill="#00306e" stroke="#00306e"></path><path d="M475 485L561 526L518 383Z" fill="#001f3c" stroke="#001f3c"></path><path d="M401 600L392 467L319 600Z" fill="#002b5d" stroke="#002b5d"></path><path d="M688 173L663 118L562 168Z" fill="#00254d" stroke="#00254d"></path><path d="M565 75L588 0L487 0Z" fill="#00254d" stroke="#00254d"></path><path d="M688 173L562 168L617 286Z" fill="#00254d" stroke="#00254d"></path><path d="M703 273L688 173L617 286Z" fill="#1b44c2" stroke="#1b44c2"></path><path d="M716 416L703 273L617 286Z" fill="#003990" stroke="#003990"></path><path d="M319 600L392 467L282 469Z" fill="#00357f" stroke="#00357f"></path><path d="M171 600L319 600L184 486Z" fill="#00182b" stroke="#00182b"></path><path d="M184 486L319 600L282 469Z" fill="#003da1" stroke="#003da1"></path><path d="M663 118L588 0L565 75Z" fill="#00254d" stroke="#00254d"></path><path d="M75 403L79 479L171 430Z" fill="#002b5d" stroke="#002b5d"></path><path d="M401 600L491 600L475 485Z" fill="#001f3c" stroke="#001f3c"></path><path d="M70 197L0 313L106 319Z" fill="#001f3c" stroke="#001f3c"></path><path d="M75 403L0 462L79 479Z" fill="#0941b1" stroke="#0941b1"></path><path d="M0 183L0 313L70 197Z" fill="#00101c" stroke="#00101c"></path><path d="M0 113L0 183L70 197Z" fill="#003da1" stroke="#003da1"></path><path d="M0 313L0 385L75 403Z" fill="#00101c" stroke="#00101c"></path><path d="M718 482L716 416L618 439Z" fill="#00182b" stroke="#00182b"></path><path d="M618 439L716 416L617 286Z" fill="#00101c" stroke="#00101c"></path><path d="M718 482L618 439L561 526Z" fill="#00101c" stroke="#00101c"></path><path d="M204 0L78 0L110 65Z" fill="#003da1" stroke="#003da1"></path><path d="M110 65L0 113L70 197Z" fill="#00182b" stroke="#00182b"></path><path d="M79 479L171 600L184 486Z" fill="#00357f" stroke="#00357f"></path><path d="M79 600L171 600L79 479Z" fill="#003da1" stroke="#003da1"></path><path d="M78 0L0 113L110 65Z" fill="#003990" stroke="#003990"></path><path d="M0 385L0 462L75 403Z" fill="#00306e" stroke="#00306e"></path><path d="M608 600L718 482L561 526Z" fill="#00357f" stroke="#00357f"></path><path d="M491 600L608 600L561 526Z" fill="#00254d" stroke="#00254d"></path><path d="M800 103L696 0L663 118Z" fill="#003990" stroke="#003990"></path><path d="M663 118L696 0L588 0Z" fill="#003990" stroke="#003990"></path><path d="M781 168L663 118L688 173Z" fill="#002b5d" stroke="#002b5d"></path><path d="M781 168L688 173L703 273Z" fill="#003da1" stroke="#003da1"></path><path d="M814 334L703 273L716 416Z" fill="#1b44c2" stroke="#1b44c2"></path><path d="M814 334L781 168L703 273Z" fill="#00357f" stroke="#00357f"></path><path d="M0 600L79 600L79 479Z" fill="#001f3c" stroke="#001f3c"></path><path d="M78 0L0 0L0 113Z" fill="#002b5d" stroke="#002b5d"></path><path d="M812 417L814 334L716 416Z" fill="#003da1" stroke="#003da1"></path><path d="M781 168L800 103L663 118Z" fill="#001f3c" stroke="#001f3c"></path><path d="M900 167L800 103L781 168Z" fill="#00254d" stroke="#00254d"></path><path d="M810 486L812 417L718 482Z" fill="#003da1" stroke="#003da1"></path><path d="M718 482L812 417L716 416Z" fill="#00306e" stroke="#00306e"></path><path d="M608 600L714 600L718 482Z" fill="#001f3c" stroke="#001f3c"></path><path d="M0 462L0 600L79 479Z" fill="#003990" stroke="#003990"></path><path d="M770 600L810 486L718 482Z" fill="#1b44c2" stroke="#1b44c2"></path><path d="M714 600L770 600L718 482Z" fill="#00254d" stroke="#00254d"></path><path d="M900 79L827 0L800 103Z" fill="#003da1" stroke="#003da1"></path><path d="M800 103L827 0L696 0Z" fill="#003990" stroke="#003990"></path><path d="M900 167L781 168L814 334Z" fill="#00357f" stroke="#00357f"></path><path d="M900 326L814 334L900 395Z" fill="#00254d" stroke="#00254d"></path><path d="M900 395L812 417L900 486Z" fill="#1b44c2" stroke="#1b44c2"></path><path d="M900 395L814 334L812 417Z" fill="#00182b" stroke="#00182b"></path><path d="M900 326L900 167L814 334Z" fill="#001f3c" stroke="#001f3c"></path><path d="M900 486L812 417L810 486Z" fill="#00357f" stroke="#00357f"></path><path d="M900 167L900 79L800 103Z" fill="#0941b1" stroke="#0941b1"></path><path d="M900 600L900 486L810 486Z" fill="#00254d" stroke="#00254d"></path><path d="M900 79L900 0L827 0Z" fill="#001f3c" stroke="#001f3c"></path><path d="M770 600L900 600L810 486Z" fill="#001f3c" stroke="#001f3c"></path></g></svg>